<?xml version="1.0" encoding="UTF-8"?>
<svg xmlns="http://www.w3.org/2000/svg" xmlns:xlink="http://www.w3.org/1999/xlink" width="90px" height="24px" viewBox="0 0 90 24" version="1.1">
<g id="surface1">
<path style=" stroke:none;fill-rule:evenodd;fill:rgb(15.294118%,15.294118%,15.294118%);fill-opacity:1;" d="M 0.175781 10.632812 C -0.0664062 10.351562 -0.0585938 9.933594 0.199219 9.667969 L 2.929688 6.828125 C 3.210938 6.535156 3.683594 6.535156 3.964844 6.828125 L 6.050781 9 C 6.332031 9.292969 6.800781 9.292969 7.085938 9 L 9.113281 6.890625 C 9.394531 6.597656 9.863281 6.597656 10.144531 6.890625 L 12.867188 9.71875 C 13.121094 9.984375 13.132812 10.402344 12.890625 10.683594 L 7.101562 17.363281 C 6.816406 17.695312 6.304688 17.695312 6.019531 17.363281 Z M 15.945312 15.25 L 17.03125 13.570312 C 17.601562 14.109375 18.484375 14.4375 19.332031 14.4375 C 19.933594 14.4375 20.402344 14.128906 20.402344 13.695312 C 20.402344 12.378906 16.339844 12.847656 16.339844 10.03125 C 16.339844 8.355469 17.898438 7.308594 19.554688 7.308594 C 20.644531 7.308594 21.835938 7.742188 22.390625 8.191406 L 21.335938 9.890625 C 20.902344 9.5625 20.332031 9.292969 19.726562 9.292969 C 19.105469 9.292969 18.585938 9.546875 18.585938 9.996094 C 18.585938 11.132812 22.648438 10.683594 22.648438 13.714844 C 22.648438 15.390625 21.074219 16.421875 19.3125 16.421875 C 18.15625 16.421875 16.929688 16.007812 15.945312 15.25 Z M 30.597656 13.101562 L 32.324219 14.453125 C 31.339844 15.824219 30.09375 16.421875 28.523438 16.421875 C 25.929688 16.421875 24.03125 14.398438 24.03125 11.875 C 24.03125 9.328125 25.984375 7.308594 28.539062 7.308594 C 29.992188 7.308594 31.289062 8.011719 32.066406 9.058594 L 30.476562 10.519531 C 30.027344 9.90625 29.351562 9.472656 28.539062 9.472656 C 27.246094 9.472656 26.277344 10.539062 26.277344 11.875 C 26.277344 13.246094 27.226562 14.253906 28.59375 14.253906 C 29.507812 14.253906 30.234375 13.679688 30.597656 13.101562 Z M 39.839844 13.171875 L 39.839844 10.554688 C 39.375 9.90625 38.632812 9.472656 37.765625 9.472656 C 36.453125 9.472656 35.605469 10.609375 35.605469 11.875 C 35.605469 13.246094 36.558594 14.253906 37.820312 14.253906 C 38.664062 14.253906 39.410156 13.824219 39.839844 13.171875 Z M 42.085938 7.488281 L 42.085938 16.242188 L 39.925781 16.242188 L 39.925781 15.535156 C 39.234375 16.148438 38.441406 16.421875 37.59375 16.421875 C 36.351562 16.421875 35.175781 15.84375 34.433594 14.941406 C 33.777344 14.148438 33.359375 13.066406 33.359375 11.875 C 33.359375 9.292969 35.191406 7.308594 37.472656 7.308594 C 38.421875 7.308594 39.269531 7.632812 39.925781 8.191406 L 39.925781 7.488281 Z M 46.925781 3.429688 L 46.925781 16.242188 L 44.679688 16.242188 L 44.679688 3.429688 Z M 55.304688 13.171875 L 55.304688 10.554688 C 54.839844 9.90625 54.09375 9.472656 53.230469 9.472656 C 51.917969 9.472656 51.070312 10.609375 51.070312 11.875 C 51.070312 13.246094 52.023438 14.253906 53.28125 14.253906 C 54.128906 14.253906 54.871094 13.824219 55.304688 13.171875 Z M 57.550781 7.488281 L 57.550781 16.242188 L 55.390625 16.242188 L 55.390625 15.535156 C 54.699219 16.148438 53.90625 16.421875 53.058594 16.421875 C 51.8125 16.421875 50.640625 15.84375 49.898438 14.941406 C 49.238281 14.148438 48.824219 13.066406 48.824219 11.875 C 48.824219 9.292969 50.65625 7.308594 52.9375 7.308594 C 53.886719 7.308594 54.734375 7.632812 55.390625 8.191406 L 55.390625 7.488281 Z M 60.144531 20.570312 L 60.144531 7.488281 L 62.300781 7.488281 L 62.300781 8.191406 C 62.960938 7.632812 63.804688 7.308594 64.757812 7.308594 C 67.035156 7.308594 68.867188 9.292969 68.867188 11.875 C 68.867188 13.066406 68.472656 14.148438 67.8125 14.941406 C 67.070312 15.84375 65.878906 16.421875 64.636719 16.421875 C 63.789062 16.421875 63.0625 16.167969 62.390625 15.628906 L 62.390625 20.570312 Z M 62.390625 10.554688 L 62.390625 13.171875 C 62.820312 13.824219 63.5625 14.253906 64.410156 14.253906 C 65.671875 14.253906 66.621094 13.246094 66.621094 11.875 C 66.621094 10.609375 65.777344 9.472656 64.460938 9.472656 C 63.597656 9.472656 62.855469 9.90625 62.390625 10.554688 Z M 76.730469 13.171875 L 76.730469 10.554688 C 76.261719 9.90625 75.519531 9.472656 74.65625 9.472656 C 73.34375 9.472656 72.496094 10.609375 72.496094 11.875 C 72.496094 13.246094 73.449219 14.253906 74.707031 14.253906 C 75.554688 14.253906 76.296875 13.824219 76.730469 13.171875 Z M 78.976562 7.488281 L 78.976562 16.242188 L 76.816406 16.242188 L 76.816406 15.535156 C 76.125 16.148438 75.332031 16.421875 74.484375 16.421875 C 73.238281 16.421875 72.066406 15.84375 71.320312 14.941406 C 70.664062 14.148438 70.25 13.066406 70.25 11.875 C 70.25 9.292969 72.082031 7.308594 74.363281 7.308594 C 75.3125 7.308594 76.160156 7.632812 76.816406 8.191406 L 76.816406 7.488281 Z M 84.230469 20.570312 L 81.878906 20.570312 L 84.195312 15.355469 L 80.445312 7.488281 L 82.914062 7.488281 L 85.367188 12.738281 L 87.632812 7.488281 L 90 7.488281 Z M 84.230469 20.570312 "/>
</g>
</svg>
