<svg width="44" height="44" viewBox="0 0 44 44" fill="none" xmlns="http://www.w3.org/2000/svg">
<path fill-rule="evenodd" clip-rule="evenodd" d="M21.9998 43.3327C27.6578 43.3327 33.084 41.0851 37.0848 37.0843C41.0856 33.0835 43.3332 27.6573 43.3332 21.9993C43.3332 16.3414 41.0856 10.9152 37.0848 6.9144C33.084 2.91363 27.6578 0.666016 21.9998 0.666016C16.3419 0.666016 10.9157 2.91363 6.91489 6.9144C2.91412 10.9152 0.666504 16.3414 0.666504 21.9993C0.666504 27.6573 2.91412 33.0835 6.91489 37.0843C10.9157 41.0851 16.3419 43.3327 21.9998 43.3327ZM31.8852 18.5513C32.3709 18.0484 32.6397 17.3748 32.6336 16.6756C32.6276 15.9764 32.3471 15.3076 31.8527 14.8132C31.3583 14.3187 30.6894 14.0383 29.9902 14.0322C29.291 14.0261 28.6174 14.2949 28.1145 14.7807L19.3332 23.562L15.8852 20.114C15.3822 19.6283 14.7086 19.3595 14.0094 19.3656C13.3102 19.3716 12.6414 19.6521 12.147 20.1465C11.6526 20.6409 11.3721 21.3098 11.366 22.0089C11.36 22.7081 11.6287 23.3817 12.1145 23.8847L17.4478 29.218C17.9479 29.7179 18.6261 29.9988 19.3332 29.9988C20.0403 29.9988 20.7184 29.7179 21.2185 29.218L31.8852 18.5513Z" fill="#1D7D3B"/>
</svg>
