<?xml version="1.0" encoding="UTF-8" standalone="no"?>
<!-- Generator: Adobe Illustrator 16.0.0, SVG Export Plug-In . SVG Version: 6.00 Build 0)  -->

<svg
   xmlns:dc="http://purl.org/dc/elements/1.1/"
   xmlns:cc="http://creativecommons.org/ns#"
   xmlns:rdf="http://www.w3.org/1999/02/22-rdf-syntax-ns#"
   xmlns:svg="http://www.w3.org/2000/svg"
   xmlns="http://www.w3.org/2000/svg"
   xmlns:sodipodi="http://sodipodi.sourceforge.net/DTD/sodipodi-0.dtd"
   xmlns:inkscape="http://www.inkscape.org/namespaces/inkscape"
   version="1.1"
   id="Layer_1"
   x="0px"
   y="0px"
   width="126px"
   height="126px"
   viewBox="0 0 126 126"
   enable-background="new 0 0 126 126"
   xml:space="preserve"
   inkscape:version="0.48.5 r10040"
   sodipodi:docname="happy43.svg"><metadata
     id="metadata3170"><rdf:RDF><cc:Work
         rdf:about=""><dc:format>image/svg+xml</dc:format><dc:type
           rdf:resource="http://purl.org/dc/dcmitype/StillImage" /><dc:title></dc:title></cc:Work></rdf:RDF></metadata><defs
     id="defs3168" /><sodipodi:namedview
     pagecolor="#ffffff"
     bordercolor="#666666"
     borderopacity="1"
     objecttolerance="10"
     gridtolerance="10"
     guidetolerance="10"
     inkscape:pageopacity="0"
     inkscape:pageshadow="2"
     inkscape:window-width="640"
     inkscape:window-height="480"
     id="namedview3166"
     showgrid="false"
     inkscape:zoom="1.8730159"
     inkscape:cx="63"
     inkscape:cy="63"
     inkscape:window-x="0"
     inkscape:window-y="27"
     inkscape:window-maximized="0"
     inkscape:current-layer="Layer_1" /><path
     stroke="#6D6E70"
     stroke-width="0"
     stroke-linecap="round"
     stroke-linejoin="round"
     d="M100.515,100.512  c20.686-20.684,20.684-54.34,0.002-75.023C79.829,4.799,46.17,4.799,25.487,25.483C4.798,46.17,4.8,79.828,25.489,100.517  C46.17,121.201,79.829,121.201,100.515,100.512z M31.273,31.27c17.493-17.492,45.96-17.494,63.457,0.003  c17.494,17.493,17.492,45.962-0.002,63.455c-17.493,17.493-45.962,17.495-63.455,0.003C13.775,77.232,13.778,48.764,31.273,31.27z   M54.834,94.237c1.339,0.479,2.721,0.848,4.132,1.095c1.343,0.235,2.713,0.364,4.105,0.364c1.34,0,2.662-0.127,3.96-0.354  c1.41-0.247,2.792-0.615,4.134-1.101c7.785-2.818,14.249-9.408,17.469-16.85c0.191-0.443,0.146-0.953-0.118-1.356  s-0.714-0.646-1.196-0.647L38.683,75.33c-0.001,0-0.002,0-0.002,0c-0.479,0-0.926,0.238-1.192,0.637  c-0.266,0.398-0.315,0.904-0.131,1.348C40.464,84.792,46.936,91.409,54.834,94.237z M66.946,91.246  c-1.266,0.283-2.559,0.45-3.874,0.45c-1.366,0-2.705-0.172-4.014-0.464c-0.688-0.153-1.366-0.346-2.034-0.568  c1.146-2.468,3.649-4.044,5.977-4.044c2.33,0,4.836,1.579,5.98,4.053C68.312,90.897,67.634,91.093,66.946,91.246z M83.005,79.384  c-2.203,3.271-5.243,6.421-8.787,8.718C71.986,84.83,67.807,82.62,63,82.62c-4.813,0-8.998,2.217-11.229,5.496  c-3.6-2.308-6.658-5.48-8.832-8.781L83.005,79.384z M43.211,48.641c0-3.424,2.777-6.201,6.2-6.201s6.2,2.777,6.2,6.201  c0,3.426-2.777,6.203-6.2,6.203S43.211,52.066,43.211,48.641z M71.328,48.641c0-3.424,2.78-6.201,6.203-6.201s6.2,2.777,6.2,6.201  c0,3.426-2.777,6.203-6.2,6.203S71.328,52.066,71.328,48.641z"
     id="path3164"
     style="fill:#e59c00"
     inkscape:export-filename="/home/rdevera/workspacephpnew/tacartreminder/views/img/icons/happy75.png"
     inkscape:export-xdpi="63.580002"
     inkscape:export-ydpi="63.580002" /></svg>