<?xml version="1.0" encoding="UTF-8" standalone="no"?>
<svg
   xmlns:dc="http://purl.org/dc/elements/1.1/"
   xmlns:cc="http://creativecommons.org/ns#"
   xmlns:rdf="http://www.w3.org/1999/02/22-rdf-syntax-ns#"
   xmlns:svg="http://www.w3.org/2000/svg"
   xmlns="http://www.w3.org/2000/svg"
   viewBox="0 0 381.13333 381.13333"
   height="381.13333"
   width="381.13333"
   xml:space="preserve"
   id="svg2"
   version="1.1"><metadata
     id="metadata8"><rdf:RDF><cc:Work
         rdf:about=""><dc:format>image/svg+xml</dc:format><dc:type
           rdf:resource="http://purl.org/dc/dcmitype/StillImage" /></cc:Work></rdf:RDF></metadata><defs
     id="defs6" /><g
     transform="matrix(1.3333333,0,0,-1.3333333,0,381.13333)"
     id="g10"><g
       transform="scale(0.1)"
       id="g12"><path
         id="path14"
         style="fill:#a6e1e9;fill-opacity:1;fill-rule:nonzero;stroke:none"
         d="m 926.527,665.309 c 22.817,10.16 45.953,19.5 69.297,28.269 26.346,9.902 52.906,19.211 79.826,27.32 33.51,10.102 67.3,19.231 101.54,26.5 46.16,9.801 92.89,17.071 139.96,21.633 -26.4,-83 -55.57,-165.531 -87.19,-247.531 1.36,-15.879 2.08,-31.859 2.5,-47.879 63.67,12.559 129.42,19.289 196.77,19.289 67.34,0 133.1,-6.73 196.76,-19.289 0.43,16.02 1.15,32 2.51,47.879 -31.63,82 -60.79,164.531 -87.19,247.531 47.07,-4.562 93.79,-11.832 139.96,-21.633 34.23,-7.269 68.02,-16.398 101.53,-26.5 26.93,-8.109 53.49,-17.418 79.84,-27.32 23.35,-8.777 46.49,-18.117 69.31,-28.277 161.95,-72.121 309.59,-179.102 430.67,-317.91 303.49,262.078 495.84,649.379 495.84,1081.839 0,789.34 -639.89,1429.23 -1429.23,1429.23 C 639.887,2858.46 0,2218.57 0,1429.23 0,996.77 192.348,609.48 495.84,347.391 c 121.086,138.82 268.734,245.8 430.687,317.918" /><path
         id="path16"
         style="fill:#4b4c4c;fill-opacity:1;fill-rule:nonzero;stroke:none"
         d="m 1020.72,406.73 c 67.09,29.661 137.94,52.34 211.74,66.891 -0.42,16.02 -1.14,32 -2.5,47.879 31.62,82 60.79,164.531 87.19,247.531 -47.07,-4.562 -93.8,-11.832 -139.96,-21.633 -34.24,-7.269 -68.03,-16.398 -101.54,-26.5 -26.92,-8.109 -53.48,-17.418 -79.826,-27.32 L 1100.01,668.34 1020.72,406.73" /><path
         id="path18"
         style="fill:#4b4c4c;fill-opacity:1;fill-rule:nonzero;stroke:none"
         d="m 775.121,252.641 c 2.606,26.64 4.203,53.5 4.203,80.66 0,16.328 13.235,29.578 29.578,29.578 h 25.969 l 91.656,302.43 C 764.574,593.191 616.926,486.211 495.84,347.391 562.586,289.75 634.668,238.211 711.336,193.57 c 20.414,20.571 41.68,40.301 63.785,59.071" /><path
         id="path20"
         style="fill:#4b4c4c;fill-opacity:1;fill-rule:nonzero;stroke:none"
         d="m 1931.95,665.301 91.66,-302.422 h 25.95 c 16.34,0 29.57,-13.25 29.57,-29.578 0,-27.16 1.6,-54.02 4.2,-80.66 22.11,-18.77 43.38,-38.5 63.79,-59.071 76.67,44.641 148.75,96.18 215.5,153.821 -121.08,138.808 -268.72,245.789 -430.67,317.91" /><path
         id="path22"
         style="fill:#4b4c4c;fill-opacity:1;fill-rule:nonzero;stroke:none"
         d="m 1758.47,668.34 104.17,25.238 c -26.35,9.902 -52.91,19.211 -79.84,27.32 -33.51,10.102 -67.3,19.231 -101.53,26.5 -46.17,9.801 -92.89,17.071 -139.96,21.633 26.4,-83 55.56,-165.531 87.19,-247.531 -1.36,-15.879 -2.08,-31.859 -2.51,-47.879 73.82,-14.562 144.67,-37.23 211.77,-66.902 l -79.29,261.621" /><path
         id="path24"
         style="fill:#231f20;fill-opacity:1;fill-rule:nonzero;stroke:none"
         d="m 1429.24,362.879 h 201.39 c -4.12,37.101 -5.6,74.082 -4.64,110.742 -63.66,12.559 -129.42,19.289 -196.76,19.289 -67.35,0 -133.1,-6.73 -196.77,-19.289 0.97,-36.66 -0.51,-73.641 -4.64,-110.742 h 201.42" /><path
         id="path26"
         style="fill:#231f20;fill-opacity:1;fill-rule:nonzero;stroke:none"
         d="m 711.336,193.57 c 16.609,-9.672 33.367,-19.101 50.391,-28.109 5.968,28.641 10.515,57.711 13.394,87.18 -22.105,-18.77 -43.371,-38.5 -63.785,-59.071" /><path
         id="path28"
         style="fill:#231f20;fill-opacity:1;fill-rule:nonzero;stroke:none"
         d="m 1007.43,362.879 h 220.39 c 4.13,37.101 5.61,74.082 4.64,110.742 -73.8,-14.551 -144.65,-37.23 -211.74,-66.891 l -13.29,-43.851" /><path
         id="path30"
         style="fill:#231f20;fill-opacity:1;fill-rule:nonzero;stroke:none"
         d="m 2083.33,252.641 c 2.89,-29.469 7.43,-58.539 13.4,-87.18 17.03,9.008 33.78,18.437 50.39,28.109 -20.41,20.571 -41.68,40.301 -63.79,59.071" /><path
         id="path32"
         style="fill:#231f20;fill-opacity:1;fill-rule:nonzero;stroke:none"
         d="m 1851.05,362.879 -13.29,43.84 c -67.1,29.672 -137.95,52.34 -211.77,66.902 -0.96,-36.66 0.52,-73.641 4.64,-110.742 h 220.42" /><path
         id="path34"
         style="fill:#a3916b;fill-opacity:1;fill-rule:nonzero;stroke:none"
         d="m 1007.43,362.879 13.29,43.851 79.29,261.61 -104.186,25.238 c -23.344,-8.769 -46.48,-18.109 -69.297,-28.269 l -91.656,-302.43 h 98.406 74.153" /><path
         id="path36"
         style="fill:#a3916b;fill-opacity:1;fill-rule:nonzero;stroke:none"
         d="m 1837.76,406.719 13.29,-43.84 h 172.56 l -91.66,302.422 c -22.82,10.16 -45.96,19.5 -69.31,28.277 l -104.17,-25.238 79.29,-261.621" /><path
         id="path38"
         style="fill:#bdac8e;fill-opacity:1;fill-rule:nonzero;stroke:none"
         d="m 837.883,301.801 c 0.898,0.648 1.808,1.281 2.711,1.918 h -2.598 c -0.019,-0.637 -0.09,-1.278 -0.113,-1.918" /><path
         id="path40"
         style="fill:#bdac8e;fill-opacity:1;fill-rule:nonzero;stroke:none"
         d="M 1429.23,303.719 H 840.594 c -0.903,-0.637 -1.813,-1.27 -2.711,-1.918 -1.977,-55.86 -9.449,-110.61 -21.582,-163.891 C 1002.07,49.5703 1209.84,0 1429.23,0 v 303.719" /><path
         id="path42"
         style="fill:#a3916b;fill-opacity:1;fill-rule:nonzero;stroke:none"
         d="m 2020.46,303.719 h -2.6 c 0.91,-0.637 1.82,-1.27 2.71,-1.918 -0.02,0.64 -0.09,1.281 -0.11,1.918" /><path
         id="path44"
         style="fill:#a3916b;fill-opacity:1;fill-rule:nonzero;stroke:none"
         d="M 2017.86,303.719 H 1429.23 V 0 c 219.39,0 427.16,49.5703 612.93,137.91 -12.13,53.281 -19.61,108.031 -21.59,163.891 -0.89,0.648 -1.8,1.281 -2.71,1.918" /><path
         id="path46"
         style="fill:#725c49;fill-opacity:1;fill-rule:nonzero;stroke:none"
         d="m 1429.23,303.719 h 0.01 v 29.582 h -0.01 v -29.582" /><path
         id="path48"
         style="fill:#856b56;fill-opacity:1;fill-rule:nonzero;stroke:none"
         d="m 2083.33,252.641 c -2.6,26.64 -4.2,53.5 -4.2,80.66 0,16.328 -13.23,29.578 -29.57,29.578 h -25.95 -98.43 -74.13 -220.42 -201.39 -201.42 -220.39 -74.153 -98.406 -25.969 c -16.343,0 -29.578,-13.25 -29.578,-29.578 0,-27.16 -1.597,-54.02 -4.203,-80.66 -2.879,-29.469 -7.426,-58.539 -13.394,-87.18 17.992,-9.52 36.136,-18.781 54.574,-27.551 12.133,53.281 19.605,108.031 21.582,163.891 0.023,0.64 0.094,1.281 0.113,1.918 h 2.598 148.906 229.46 210.27 0.01 210.26 229.48 148.88 2.6 c 0.02,-0.637 0.09,-1.278 0.11,-1.918 1.98,-55.86 9.46,-110.61 21.59,-163.891 18.44,8.77 36.58,18.031 54.57,27.551 -5.97,28.641 -10.51,57.711 -13.4,87.18" /><path
         id="path50"
         style="fill:#4b4c4c;fill-opacity:1;fill-rule:nonzero;stroke:none"
         d="m 1838.45,566.82 c -4.31,4.961 -8.76,10.27 -13.37,16.301 4.62,-6.039 9.06,-11.34 13.37,-16.301 v 0" /><path
         id="path52"
         style="fill:#a3916b;fill-opacity:1;fill-rule:nonzero;stroke:none"
         d="m 1871.33,534.18 c 0,0 0.1,-0.328 0.3,-0.93 -0.2,0.602 -0.3,0.93 -0.3,0.93 0,0 -14.49,11.48 -32.88,32.64 v 0 c 18.39,-21.16 32.88,-32.64 32.88,-32.64" /><path
         id="path54"
         style="fill:#ffffff;fill-opacity:1;fill-rule:nonzero;stroke:none"
         d="m 2308.05,1827.32 v -0.07 0.07" /><path
         id="path56"
         style="fill:#ffffff;fill-opacity:1;fill-rule:nonzero;stroke:none"
         d="m 2365.56,1415.82 c 0,0.14 0.02,0.28 0.02,0.42 v 0 c 0,-0.14 -0.02,-0.28 -0.02,-0.42" /><path
         id="path58"
         style="fill:#bcbcbc;fill-opacity:1;fill-rule:nonzero;stroke:none"
         d="m 2380.84,1747.29 -0.01,0.01 0.01,-0.01 c -0.24,0.32 -0.48,0.61 -0.71,0.93 l 0.02,-0.01 c -11.88,16.49 -24.13,31.54 -36.7,45.2 -0.03,0.04 -0.07,0.09 -0.11,0.13 0.04,-0.04 0.08,-0.09 0.11,-0.13 -0.11,0.12 -0.22,0.26 -0.33,0.39 v -0.01 c -5.71,6.19 -11.47,12.1 -17.31,17.7 -2.21,2.11 -4.48,3.96 -6.71,5.98 -3.67,3.34 -7.32,6.78 -11.05,9.84 v -0.06 -132.91 l 50.91,-233.12 v 0.01 c 0.55,-1.81 1.22,-3.5 1.71,-5.38 l 35.27,-39.52 0.34,0.38 h 36.9 c 0.06,3.43 0.26,6.8 0.26,10.23 v 0.06 c -0.01,109.95 -18.07,215.6 -50.8,314.58 v -0.01 c -0.62,1.9 -1.16,3.83 -1.8,5.72" /><path
         id="path60"
         style="fill:#bcbcbc;fill-opacity:1;fill-rule:nonzero;stroke:none"
         d="m 2365.58,1416.24 c 0,0.14 -0.02,0.26 -0.02,0.39 0,-0.13 0.02,-0.26 0.02,-0.39 v 0" /><path
         id="path62"
         style="fill:#606364;fill-opacity:1;fill-rule:nonzero;stroke:none"
         d="m 2363.97,1438.51 c 0.04,-0.38 0.16,-0.72 0.2,-1.1 0.03,-0.23 0.1,-0.44 0.13,-0.67 0,-0.03 0,-0.06 0,-0.09 0.68,-5.46 0.95,-11.16 1.06,-16.91 0.03,-1.06 0.2,-2.05 0.2,-3.11 0,-0.13 0.02,-0.25 0.02,-0.39 0,-0.14 -0.02,-0.28 -0.02,-0.42 -0.01,-1.14 -0.19,-2.2 -0.21,-3.33 -0.13,-5.64 -0.38,-11.23 -1.04,-16.59 0,-0.03 0,-0.06 0,-0.09 -0.04,-0.27 -0.11,-0.52 -0.15,-0.8 -0.05,-0.44 -0.17,-0.83 -0.24,-1.26 -0.8,-5.85 -1.83,-11.52 -3.2,-16.91 -0.01,-0.03 -0.01,-0.06 -0.02,-0.08 v -0.01 l 0.2,0.22 c 0.02,0.09 0.05,0.17 0.08,0.26 v -0.01 l 34.96,39.11 -35.27,39.52 c 0,-0.02 0,-0.06 0.02,-0.08 1.4,-5.5 2.47,-11.29 3.28,-17.26" /><path
         id="path64"
         style="fill:#231f20;fill-opacity:1;fill-rule:nonzero;stroke:none"
         d="m 2310.11,1429.37 c -11.91,0 -21.57,16.55 -21.57,36.96 0,20.41 9.66,36.96 21.57,36.96 11.92,0 21.57,-16.55 21.57,-36.96 0,-20.41 -9.65,-36.96 -21.57,-36.96 z m 53.81,-35.62 c 0.11,0.74 0.31,1.4 0.39,2.15 0.66,5.36 0.91,10.95 1.04,16.59 0.02,1.28 0.22,2.47 0.22,3.75 0,1.2 -0.18,2.31 -0.21,3.5 -0.11,5.75 -0.38,11.45 -1.06,16.91 -0.07,0.65 -0.25,1.22 -0.33,1.86 -0.81,5.97 -1.88,11.76 -3.28,17.26 -0.5,1.92 -1.18,3.63 -1.75,5.48 -3.38,11.19 -7.99,21.07 -13.46,29.28 -0.74,1.09 -1.49,2.16 -2.25,3.18 -1.5,2.02 -3.01,3.99 -4.61,5.75 -2.37,2.56 -4.81,4.92 -7.39,6.87 -0.98,0.75 -2.02,1.27 -3.03,1.93 -2.23,1.43 -4.51,2.69 -6.86,3.65 -1.01,0.41 -2.02,0.81 -3.05,1.13 -3.33,1.03 -6.73,1.77 -10.24,1.77 -3.51,0 -6.9,-0.74 -10.24,-1.77 -1.03,-0.32 -2.04,-0.72 -3.05,-1.14 -2.35,-0.95 -4.63,-2.21 -6.87,-3.65 -0.99,-0.65 -2.04,-1.17 -3.01,-1.91 -2.58,-1.96 -5.03,-4.32 -7.4,-6.88 -1.6,-1.76 -3.1,-3.72 -4.59,-5.73 -0.78,-1.04 -1.53,-2.11 -2.27,-3.21 -5.47,-8.21 -10.09,-18.09 -13.46,-29.28 -0.15,-0.45 -0.3,-0.88 -0.43,-1.34 -1.49,-5.13 -2.65,-10.54 -3.63,-16.09 -0.29,-1.71 -0.68,-3.33 -0.92,-5.07 -0.89,-6.2 -1.34,-12.68 -1.45,-19.31 -0.02,-0.92 -0.16,-1.79 -0.16,-2.72 h 0.23 c 0,-54.43 25.75,-98.56 57.52,-98.56 5.47,0 10.74,1.43 15.74,3.88 0.8,0.4 1.6,0.81 2.39,1.27 2.08,1.19 4.12,2.5 6.08,4.07 1.08,0.87 2.09,1.93 3.13,2.91 2.54,2.37 4.95,5.05 7.24,8.03 1.58,2.08 3.15,4.17 4.6,6.51 0.92,1.48 1.78,3.09 2.64,4.67 1.6,2.97 3.12,6.07 4.5,9.35 0.51,1.18 1.03,2.33 1.5,3.55 1.75,4.57 3.29,9.39 4.58,14.45 1.37,5.39 2.4,11.06 3.2,16.91" /><path
         id="path66"
         style="fill:#ffffff;fill-opacity:1;fill-rule:nonzero;stroke:none"
         d="m 2310.11,1503.29 c -11.91,0 -21.57,-16.55 -21.57,-36.96 0,-20.41 9.66,-36.96 21.57,-36.96 11.92,0 21.57,16.55 21.57,36.96 0,20.41 -9.65,36.96 -21.57,36.96" /><path
         id="path68"
         style="fill:#8d8f8e;fill-opacity:1;fill-rule:nonzero;stroke:none"
         d="m 2257.16,1461.24 v 0 c 3.37,11.19 7.99,21.07 13.46,29.28 0.74,1.11 1.49,2.16 2.27,3.21 1.49,2.01 2.99,3.97 4.59,5.73 2.36,2.58 4.82,4.9 7.4,6.88 0.97,0.74 2.02,1.26 3.01,1.91 2.23,1.46 4.52,2.68 6.87,3.65 1.01,0.42 2.02,0.82 3.05,1.14 3.33,1.05 6.73,1.77 10.24,1.77 3.51,0 6.91,-0.72 10.24,-1.77 1.03,-0.32 2.04,-0.72 3.05,-1.13 2.35,-0.98 4.63,-2.2 6.86,-3.65 1.01,-0.66 2.05,-1.18 3.03,-1.93 2.57,-1.97 5.03,-4.29 7.39,-6.87 1.6,-1.76 3.11,-3.73 4.61,-5.75 0.76,-1.03 1.51,-2.08 2.25,-3.18 5.47,-8.21 10.08,-18.09 13.46,-29.28 l 0.01,-0.02 h 0.01 l -50.91,233.11 -50.91,-233.1 h 0.02" /><path
         id="path70"
         style="fill:#231f20;fill-opacity:1;fill-rule:nonzero;stroke:none"
         d="m 1499,1434.2 c -27.93,0 -50.58,22.65 -50.58,50.59 0,27.94 22.65,50.58 50.58,50.58 27.94,0 50.59,-22.64 50.59,-50.58 0,-27.94 -22.65,-50.59 -50.59,-50.59 z m 134.56,-15.78 c -0.07,4.69 -0.37,9.32 -0.9,13.88 -0.01,0.06 -0.03,0.12 -0.03,0.19 -0.54,4.49 -1.29,8.92 -2.25,13.26 -0.03,0.12 -0.06,0.23 -0.09,0.34 -0.96,4.3 -2.12,8.52 -3.49,12.65 -0.04,0.1 -0.08,0.19 -0.11,0.29 -1.38,4.14 -2.94,8.2 -4.71,12.15 -0.03,0.08 -0.08,0.16 -0.12,0.24 -1.77,3.97 -3.74,7.84 -5.88,11.6 v 0 c -6.54,11.46 -14.71,21.86 -24.2,30.9 -12.05,11.47 -26.21,20.75 -41.84,27.18 -0.12,0.05 -0.26,0.09 -0.39,0.14 -7.7,3.14 -15.75,5.6 -24.09,7.27 -0.21,0.04 -0.42,0.05 -0.63,0.09 -8.36,1.64 -16.98,2.54 -25.83,2.54 -8.68,0 -17.15,-0.89 -25.37,-2.47 -0.29,-0.06 -0.59,-0.08 -0.88,-0.13 -8.18,-1.63 -16.08,-4.02 -23.65,-7.06 -0.2,-0.08 -0.41,-0.15 -0.61,-0.23 -7.68,-3.13 -15.02,-6.94 -21.91,-11.37 -0.03,-0.02 -0.05,-0.03 -0.07,-0.04 -6.96,-4.48 -13.49,-9.58 -19.5,-15.22 l -0.15,-0.46 -0.5,-0.12 c -9.59,-9.12 -17.84,-19.63 -24.44,-31.19 -0.08,-0.14 -0.16,-0.27 -0.24,-0.41 -2.01,-3.55 -3.83,-7.23 -5.52,-10.98 -0.17,-0.4 -0.39,-0.78 -0.56,-1.19 -1.53,-3.47 -2.85,-7.06 -4.08,-10.68 -0.23,-0.71 -0.54,-1.38 -0.76,-2.09 -1.08,-3.38 -1.95,-6.85 -2.77,-10.34 -0.22,-0.99 -0.54,-1.95 -0.75,-2.95 -0.72,-3.43 -1.21,-6.95 -1.67,-10.48 -0.13,-1.08 -0.37,-2.12 -0.48,-3.21 -0.48,-4.61 -0.74,-9.29 -0.74,-14.04 0,-8.91 0.91,-17.6 2.57,-26.02 0.03,-0.17 0.04,-0.36 0.08,-0.53 1.69,-8.41 4.17,-16.52 7.35,-24.28 0.04,-0.11 0.07,-0.22 0.12,-0.32 6.48,-15.7 15.85,-29.92 27.43,-41.99 9.15,-9.54 19.69,-17.73 31.28,-24.27 0.06,-0.03 0.11,-0.07 0.17,-0.1 3.62,-2.03 7.36,-3.87 11.17,-5.56 0.31,-0.14 0.61,-0.31 0.93,-0.45 3.53,-1.54 7.17,-2.87 10.86,-4.11 0.62,-0.21 1.22,-0.48 1.85,-0.68 3.4,-1.08 6.9,-1.95 10.41,-2.76 0.95,-0.22 1.86,-0.53 2.82,-0.73 3.42,-0.71 6.92,-1.19 10.44,-1.64 1.06,-0.13 2.11,-0.37 3.19,-0.49 4.6,-0.47 9.26,-0.72 13.98,-0.72 18.6,0 36.31,3.76 52.42,10.58 8.05,3.4 15.71,7.57 22.87,12.41 14.33,9.68 26.69,22.05 36.38,36.37 4.83,7.17 9,14.82 12.41,22.88 6.81,16.11 10.58,33.82 10.58,52.41 0,0.32 -0.04,0.62 -0.04,0.93 v 0 c -0.01,0.34 -0.05,0.67 -0.06,1.01 v 0" /><path
         id="path72"
         style="fill:#ffffff;fill-opacity:1;fill-rule:nonzero;stroke:none"
         d="m 1499,1535.37 c -27.93,0 -50.58,-22.64 -50.58,-50.58 0,-27.94 22.65,-50.59 50.58,-50.59 27.94,0 50.59,22.65 50.59,50.59 0,27.94 -22.65,50.58 -50.59,50.58" /><path
         id="path74"
         style="fill:#bcbcbc;fill-opacity:1;fill-rule:nonzero;stroke:none"
         d="m 1406.36,1514.04 v 0 l 0.5,0.12 0.15,0.46 v 0 l 92.74,283.63 c 0,0 0,16.78 0,33.56 0,4.73 0,9.42 0,13.77 0,1.44 0,2.89 0,4.23 0,2.12 0,4.05 0,5.84 0,1.26 0,2.48 0,3.54 0,1.41 0,2.56 0,3.53 0,0.78 0,1.47 0,1.91 0,0.49 -0.01,0.75 -0.01,0.75 -51.65,10.58 -104.76,16.41 -159.11,16.41 -18.15,0 -36.14,-0.77 -54.03,-1.98 -2.61,-0.18 -5.22,-0.34 -7.83,-0.54 -93.09,-7.07 -184.76,-31.33 -269.64,-70.08 -72.79,-33.24 -140.431,-77.02 -201.216,-128.93 v -0.01 c -0.035,-0.03 -0.07,-0.06 -0.105,-0.09 -16.325,-13.87 -31.965,-28.51 -47.25,-43.51 -2.856,-2.8 -5.758,-5.56 -8.579,-8.4 -14.39,-14.49 -28.292,-29.47 -41.726,-44.88 -2.926,-3.36 -5.781,-6.78 -8.664,-10.18 -13.496,-15.93 -26.645,-32.17 -39.106,-48.95 -1.043,-1.4 -2.011,-2.87 -3.046,-4.28 -11.887,-16.18 -23.208,-32.78 -34.118,-49.66 -2.125,-3.29 -4.32,-6.55 -6.41,-9.87 -8.824,-13.99 -17.027,-28.36 -25.176,-42.77 h 421.736 0.75 l 390.14,96.38" /><path
         id="path76"
         style="fill:#e4dedb;fill-opacity:1;fill-rule:nonzero;stroke:none"
         d="m 1763.03,1545.96 c 0.86,11.06 1.57,22.12 2.14,33.19 0.77,14.99 1.29,29.99 1.58,44.99 0.22,11.65 0.19,23.3 0.14,34.95 -0.01,3.36 0.07,6.72 0.04,10.09 -0.31,30.02 -1.48,60.07 -3.32,90.15 v 0 0 c -0.08,0.05 -0.16,0.11 -0.24,0.16 -0.05,0.08 -0.09,0.15 -0.12,0.22 -0.12,0.07 -0.55,0.32 -0.95,0.54 -0.36,0.21 -0.67,0.39 -1.34,0.77 -5.52,3.17 -19.08,10.93 -31.25,17.85 -0.26,0.14 -0.52,0.3 -0.78,0.44 -3.08,1.75 -6.05,3.43 -8.74,4.95 -0.05,0.02 -0.11,0.06 -0.16,0.09 -2.32,1.3 -4.26,2.39 -6.06,3.39 -0.36,0.2 -0.86,0.48 -1.19,0.67 -1.98,1.1 -3.51,1.93 -4.41,2.4 -19.42,10.07 -39.24,19.4 -59.4,27.91 -48.04,20.29 -112.76,38.07 -149.22,46.66 v -25.54 -5.97 -2.06 c 0,-16.78 0,-33.56 0,-33.56 l 91.93,-284.09 0.1,-0.24 c 9.49,-9.04 17.66,-19.44 24.2,-30.89 v -0.01 c 2.14,-3.76 4.11,-7.63 5.88,-11.6 0.05,-0.08 0.09,-0.16 0.12,-0.24 1.77,-3.95 3.33,-8.01 4.71,-12.15 0.03,-0.1 0.07,-0.19 0.11,-0.29 1.37,-4.13 2.53,-8.35 3.49,-12.65 0.03,-0.11 0.06,-0.22 0.09,-0.34 0.96,-4.34 1.71,-8.77 2.25,-13.26 0,-0.07 0.02,-0.13 0.03,-0.19 0.53,-4.56 0.83,-9.19 0.9,-13.88 v 0 l 0.34,-0.76 h 112.56 c 7.61,41.19 12.91,82.93 16.27,124.85 0.08,1.15 0.21,2.3 0.3,3.45" /><path
         id="path78"
         style="fill:#f9a72b;fill-opacity:1;fill-rule:nonzero;stroke:none"
         d="m 1910.24,1646.41 c -0.07,-0.13 -0.13,-0.27 -0.2,-0.4 0.07,0.13 0.14,0.26 0.2,0.39 v 0.01" /><path
         id="path80"
         style="fill:#f9a72b;fill-opacity:1;fill-rule:nonzero;stroke:none"
         d="m 1634.53,1012.85 c 25.52,25.4 49.64,49.75 72.64,73.59 13.66,14.17 27.02,28.2 39.77,42.04 94.08,102.11 163.14,197.67 204.68,320.6 0.98,2.92 1.96,6.76 2.91,11.08 0.15,0.67 0.3,1.3 0.44,2 0.98,4.59 1.93,9.69 2.87,15.44 0.38,3.96 0.76,7.81 1.11,11.53 -10.42,53.53 -30.71,105.55 -48.58,156.92 0.06,-0.18 0.12,-0.35 0.18,-0.53 -0.1,0.09 -0.44,0.43 -0.51,0.49 -3.43,3.25 -7.03,6.29 -10.5,9.49 -10.58,9.76 -21.34,19.27 -32.3,28.51 -32.86,27.72 -67.4,53.01 -103.63,75.32 v 0 c 1.84,-30.08 3.01,-60.13 3.32,-90.15 0.04,-3.37 -0.05,-6.73 -0.04,-10.09 0.05,-11.65 0.08,-23.3 -0.14,-34.95 -0.29,-15 -0.81,-30 -1.58,-44.99 -0.57,-11.07 -1.28,-22.13 -2.14,-33.19 -0.09,-1.15 -0.22,-2.3 -0.3,-3.45 -3.36,-41.92 -8.66,-83.66 -16.27,-124.85 l -13.22,-62.52 c -27.61,-111.94 -83.7,-213.49 -129.81,-318.33 -12.23,-27.81 -23.83,-55.919 -34,-84.56 -0.93,-2.629 -1.92,-5.379 -2.88,-8.09 14.4,15.129 27.15,28.219 36.85,37.82 10.57,10.469 20.95,20.75 31.13,30.87" /><path
         id="path82"
         style="fill:#8d8f8e;fill-opacity:1;fill-rule:nonzero;stroke:none"
         d="m 1407.01,1514.62 v 0 c 6.01,5.64 12.54,10.74 19.5,15.22 0.02,0.01 0.04,0.02 0.07,0.04 6.89,4.43 14.23,8.24 21.91,11.37 0.2,0.08 0.41,0.14 0.61,0.23 7.57,3.04 15.47,5.43 23.65,7.06 0.29,0.05 0.58,0.07 0.88,0.13 8.22,1.58 16.69,2.47 25.37,2.47 8.85,0 17.47,-0.9 25.83,-2.54 0.21,-0.04 0.42,-0.05 0.63,-0.09 8.34,-1.67 16.39,-4.13 24.09,-7.27 0.13,-0.05 0.26,-0.09 0.39,-0.14 15.63,-6.43 29.79,-15.71 41.84,-27.18 l -0.1,0.24 -91.93,284.09 -92.74,-283.63" /><path
         id="path84"
         style="fill:#606364;fill-opacity:1;fill-rule:nonzero;stroke:none"
         d="m 1374.35,1365.65 c -3.18,7.76 -5.66,15.87 -7.35,24.28 -0.04,0.17 -0.05,0.36 -0.08,0.53 -1.66,8.42 -2.57,17.11 -2.57,26.02 0,4.75 0.26,9.43 0.74,14.04 0.11,1.09 0.35,2.13 0.48,3.21 0.46,3.53 0.95,7.05 1.67,10.48 0.21,1 0.53,1.96 0.75,2.95 0.82,3.49 1.69,6.96 2.77,10.34 0.23,0.71 0.52,1.38 0.76,2.09 1.23,3.62 2.55,7.21 4.08,10.68 0.17,0.41 0.39,0.79 0.56,1.19 1.69,3.75 3.51,7.43 5.52,10.98 0.08,0.14 0.17,0.27 0.24,0.41 6.6,11.56 14.85,22.07 24.44,31.19 v 0 l -390.14,-96.38 h -0.75 l 386.43,-94.32 c -11.58,12.07 -20.95,26.29 -27.43,41.99 -0.05,0.1 -0.08,0.21 -0.12,0.32" /><path
         id="path86"
         style="fill:#e4dedb;fill-opacity:1;fill-rule:nonzero;stroke:none"
         d="m 2252.18,1438.74 c 0.25,1.74 0.62,3.36 0.92,5.07 0.98,5.55 2.14,10.96 3.63,16.09 0.17,0.58 0.24,1.24 0.41,1.81 l 50.91,233.1 -0.01,132.91 c -41.59,34.35 -86.13,53.13 -132.51,53.13 -58.59,0 -113.23,-32.35 -154.09,-72.32 -44.7,-43.73 -79.25,-98.76 -107.19,-154.29 -1.28,-2.55 -2.6,-5.01 -3.87,-7.58 8.61,-7.45 17.13,-15.02 25.54,-22.71 19.02,-17.41 37.63,-35.27 56,-53.38 8.56,-8.45 16.95,-17.07 25.37,-25.65 8.93,-9.1 17.88,-18.18 26.68,-27.42 11.31,-11.89 22.52,-23.89 33.62,-36 4.68,-5.1 9.34,-10.21 13.97,-15.34 13.38,-14.82 26.7,-29.71 39.8,-44.79 l 0.03,-0.02 c 2.19,-2.3 3.74,-3.95 4.33,-4.64 h 114.8 c 0,0.94 0.19,1.79 0.21,2.72 0.11,6.63 0.56,13.11 1.45,19.31" /><path
         id="path88"
         style="fill:#e4dedb;fill-opacity:1;fill-rule:nonzero;stroke:none"
         d="m 1910.37,1646.05 c -0.05,0.12 -0.09,0.24 -0.13,0.35 v 0 c -0.06,-0.13 -0.13,-0.26 -0.2,-0.39 0.07,-0.06 0.41,-0.4 0.51,-0.49 -0.06,0.18 -0.12,0.35 -0.18,0.53" /><path
         id="path90"
         style="fill:#4b4c4c;fill-opacity:1;fill-rule:nonzero;stroke:none"
         d="m 524.52,1270.98 c 0.328,0.86 0.691,1.7 1.019,2.56 7.391,19.33 15.492,38.4 23.996,57.3 2.367,5.26 4.82,10.47 7.274,15.7 6.961,14.82 14.332,29.45 21.972,43.94 3.106,5.9 6.137,11.82 9.356,17.66 1.773,3.22 3.785,6.31 5.597,9.52 8.149,14.41 16.352,28.78 25.176,42.77 2.09,3.33 4.285,6.57 6.41,9.87 10.91,16.88 22.231,33.48 34.118,49.66 1.035,1.41 2.003,2.88 3.046,4.28 12.461,16.78 25.61,33.02 39.106,48.95 2.883,3.4 5.73,6.81 8.664,10.18 13.434,15.41 27.336,30.39 41.726,44.88 2.829,2.84 5.715,5.6 8.579,8.4 15.285,15 30.925,29.64 47.25,43.51 0.035,0.03 0.07,0.06 0.105,0.1 64.203,215.1 260.666,371.69 493.146,371.69 93.58,0 186.63,-26.96 266.38,-75.75 81.8,-50.03 148.46,-123.33 191.76,-208.78 0.22,-0.43 0.44,-0.86 0.65,-1.28 1.09,-2.17 2.32,-4.25 3.4,-6.43 v 0 0 c 0.03,-0.07 0.07,-0.14 0.12,-0.22 0.08,-0.05 0.16,-0.11 0.24,-0.16 36.23,-22.31 70.78,-47.6 103.63,-75.32 10.96,-9.24 21.72,-18.75 32.3,-28.51 3.47,-3.2 7.07,-6.24 10.5,-9.49 0.07,0.13 0.13,0.27 0.2,0.4 0.04,0.09 0.08,0.18 0.13,0.26 1.18,2.43 2.34,4.89 3.54,7.28 32.76,206.76 123.97,355.71 231.55,355.71 81.07,0 152.9,-84.56 197.42,-214.7 l 0.45,-1.4 c 0.04,-0.05 0.08,-0.1 0.12,-0.15 12.57,-13.66 24.82,-28.71 36.7,-45.2 l -0.02,0.01 c 0.23,-0.32 0.47,-0.61 0.71,-0.93 l -0.01,0.01 0.01,-0.01 c 0.64,-1.89 1.18,-3.82 1.8,-5.72 v 0.01 l -1.69,6.78 c -133.81,396.19 -508.54,681.43 -949.9,681.43 -553.601,0 -1002.382,-448.78 -1002.382,-1002.38 0,-109.14 17.445,-214.2 49.816,-311.98 0.043,0.19 0.094,0.38 0.137,0.57 6.363,29.48 13.996,58.8 22.871,87.8 6.922,22.6 14.621,45.02 23.028,67.18" /><path
         id="path92"
         style="fill:#ffffff;fill-opacity:1;fill-rule:nonzero;stroke:none"
         d="m 2395.94,1416.33 -34.96,-39.11 v 0.01 c -0.03,-0.09 -0.06,-0.17 -0.08,-0.26 -1.33,-5.14 -2.96,-9.95 -4.76,-14.58 -0.47,-1.22 -0.99,-2.37 -1.5,-3.55 -1.39,-3.28 -2.89,-6.39 -4.5,-9.35 -0.86,-1.58 -1.72,-3.19 -2.64,-4.67 -1.45,-2.33 -3.01,-4.44 -4.6,-6.51 -2.29,-2.98 -4.7,-5.66 -7.24,-8.03 -1.04,-0.97 -2.04,-2.04 -3.13,-2.91 -1.96,-1.57 -4,-2.88 -6.08,-4.07 -0.79,-0.45 -1.58,-0.88 -2.39,-1.27 -5,-2.45 -10.27,-3.88 -15.74,-3.88 -31.77,0 -57.52,44.13 -57.52,98.56 h -0.23 -0.05 -114.8 -0.35 c 0.03,-0.02 0.05,-0.05 0.07,-0.07 21.43,-24.75 42.49,-49.83 63.27,-75.15 0.25,-0.31 0.5,-0.62 0.75,-0.92 20.2,-24.65 40.1,-49.53 59.79,-74.57 0.97,-1.23 1.93,-2.45 2.9,-3.68 18.68,-23.8 37.12,-47.76 55.42,-71.78 1.78,-2.33 3.57,-4.65 5.34,-6.98 19.35,-25.46 38.53,-50.99 57.56,-76.54 0.13,-0.19 0.26,-0.36 0.4,-0.54 32.98,97.57 51.42,201.8 52.57,310.23 h -0.26 -36.9 l -0.34,-0.38" /><path
         id="path94"
         style="fill:#231f20;fill-opacity:1;fill-rule:nonzero;stroke:none"
         d="m 1278.77,1879.27 c 2.61,0.2 5.22,0.36 7.83,0.54 17.89,1.21 35.88,1.98 54.03,1.98 54.35,0 107.46,-5.83 159.11,-16.41 0,0 0.01,-0.27 0.01,-0.75 0,-0.44 0,-1.13 0,-1.91 0,-0.95 0,-2.17 0,-3.53 0,-1.06 0,-2.28 0,-3.54 0,-1.76 0,-3.75 0,-5.84 0,-1.34 0,-2.79 0,-4.23 0,-1.86 0,-3.78 0,-5.74 v 25.54 c 36.46,-8.59 101.18,-26.37 149.22,-46.66 20.16,-8.51 39.98,-17.84 59.4,-27.91 0.9,-0.47 2.43,-1.31 4.41,-2.4 0.33,-0.19 0.83,-0.47 1.19,-0.67 1.8,-1 3.76,-2.09 6.06,-3.39 0.05,-0.03 0.11,-0.07 0.16,-0.09 2.7,-1.53 5.65,-3.2 8.74,-4.95 0.26,-0.14 0.52,-0.3 0.78,-0.44 12.35,-7.01 26.02,-14.85 31.25,-17.85 0.67,-0.38 0.98,-0.56 1.34,-0.77 0.26,-0.14 0.85,-0.48 0.95,-0.54 v 0 c -1.08,2.18 -2.31,4.26 -3.4,6.43 -0.21,0.42 -0.43,0.85 -0.65,1.28 -43.3,85.45 -109.96,158.75 -191.76,208.78 -79.75,48.79 -172.8,75.75 -266.38,75.75 -232.48,0 -428.943,-156.59 -493.146,-371.69 60.785,51.91 128.426,95.69 201.216,128.93 84.88,38.75 176.55,63.01 269.64,70.08" /><path
         id="path96"
         style="fill:none;stroke:#231f20;stroke-width:7.5;stroke-linecap:round;stroke-linejoin:round;stroke-miterlimit:4;stroke-dasharray:none;stroke-opacity:1"
         d="m 1499.75,1839.84 v -5.97" /><path
         id="path98"
         style="fill:#231f20;fill-opacity:1;fill-rule:nonzero;stroke:none"
         d="m 2021.44,1808.53 c 40.86,39.97 95.5,72.32 154.09,72.32 46.38,0 90.92,-18.78 132.51,-53.13 0,0 0.01,-0.31 0.01,-0.41 v -0.06 0.06 c 3.73,-3.06 7.38,-6.5 11.05,-9.84 2.23,-2.02 4.5,-3.87 6.71,-5.98 5.84,-5.6 11.6,-11.51 17.31,-17.7 v 0.01 c 0.11,-0.13 0.22,-0.27 0.33,-0.39 -0.03,0.04 -0.07,0.09 -0.11,0.13 l -0.01,0.01 -0.45,1.41 c -44.52,130.14 -116.35,214.7 -197.42,214.7 -107.58,0 -198.79,-148.95 -231.55,-355.71 l 0.34,0.29 c 27.94,55.53 62.49,110.56 107.19,154.29" /><path
         id="path100"
         style="fill:#ffffff;fill-opacity:1;fill-rule:nonzero;stroke:none"
         d="m 1072.15,492.371 c 9.15,-3.519 18.47,-6.691 27.75,-9.941 103.68,-36.328 215.05,-56.352 331.16,-56.352 132.39,0 258.67,25.922 374.37,72.551 6.12,2.461 12.11,5.16 18.17,7.742 9.82,4.188 19.58,8.488 29.24,12.969 8.64,4.012 17.29,8 25.79,12.25 -2.05,-0.258 -4.11,-0.649 -6.16,-0.879 v 0 c -35.97,-4.051 -71.67,-4.281 -106.54,0.73 -206.25,29.649 -251.94,129.09 -245.4,232.661 -14.83,8.558 -29.96,18.199 -45.32,29.339 -158.62,115.079 -252.77,237.669 -252.77,237.669 0,0 122.36,-94.45 305.13,-165.141 3.92,-1.52 7.59,-2.828 11.44,-4.289 8.54,29.519 18.65,57.59 27.54,82.48 v 0 c 0.96,2.711 1.95,5.461 2.88,8.09 10.17,28.641 21.77,56.75 34,84.56 46.11,104.84 102.2,206.39 129.81,318.33 l 13.22,62.52 h -112.56 -0.24 -0.01 c 0,-0.08 0.01,-0.15 0.01,-0.23 l -0.04,-0.02 v 0 c 0,-0.31 0.04,-0.61 0.04,-0.93 0,-18.59 -3.77,-36.3 -10.58,-52.41 -3.41,-8.06 -7.58,-15.71 -12.41,-22.88 -9.69,-14.32 -22.05,-26.69 -36.38,-36.37 -7.16,-4.84 -14.82,-9.01 -22.87,-12.41 -16.11,-6.82 -33.82,-10.58 -52.42,-10.58 -4.72,0 -9.38,0.25 -13.98,0.72 -1.08,0.12 -2.12,0.35 -3.19,0.49 -3.52,0.45 -7.02,0.93 -10.44,1.64 -0.96,0.21 -1.87,0.51 -2.82,0.73 -3.51,0.81 -7.01,1.68 -10.41,2.76 -0.63,0.21 -1.23,0.47 -1.85,0.68 -3.69,1.24 -7.33,2.57 -10.86,4.11 -0.32,0.14 -0.62,0.3 -0.93,0.45 -3.81,1.69 -7.55,3.53 -11.17,5.56 -0.06,0.03 -0.11,0.07 -0.17,0.1 -11.59,6.54 -22.13,14.73 -31.28,24.27 l -386.43,94.32 H 593.734 c -1.812,-3.21 -3.824,-6.3 -5.597,-9.52 -3.219,-5.84 -6.25,-11.77 -9.356,-17.66 -7.64,-14.49 -15.011,-29.12 -21.972,-43.94 -2.461,-5.22 -4.899,-10.45 -7.274,-15.7 -8.504,-18.9 -16.605,-37.97 -23.996,-57.3 -0.328,-0.86 -0.691,-1.7 -1.019,-2.56 -8.407,-22.16 -16.106,-44.58 -23.028,-67.18 -8.875,-29 -16.508,-58.32 -22.871,-87.8 66.402,-202.512 195.57,-376.512 364.438,-499.148 4.91,-3.563 10.093,-6.743 15.074,-10.223 28.555,-19.957 58.062,-38.641 88.691,-55.598 40.199,-22.269 81.976,-42.019 125.326,-58.66" /><path
         id="path102"
         style="fill:#9d134e;fill-opacity:1;fill-rule:nonzero;stroke:none"
         d="m 1764.22,803.711 c -1.53,-10.742 -2.58,-21.289 -2.89,-31.492 -0.59,-18.528 0.69,-36.149 3.38,-52.789 1.8,-11.098 4.21,-21.758 7.12,-31.969 4.36,-15.32 9.83,-29.621 15.94,-42.84 6.11,-13.23 12.87,-25.383 19.82,-36.391 2.31,-3.66 4.64,-7.21 6.98,-10.621 3.52,-5.129 7.04,-9.961 10.51,-14.488 4.61,-6.031 9.06,-11.34 13.37,-16.301 18.39,-21.16 32.88,-32.64 32.88,-32.64 0,0 0.1,-0.328 0.3,-0.93 0.19,-0.602 0.48,-1.469 0.84,-2.539 v 0 c 2.05,0.23 4.11,0.621 6.16,0.879 44.7,5.601 89.72,17.711 134.15,33.68 22.66,8.152 45.22,16.98 67.41,27.121 6.77,3.089 13.4,6.531 20.11,9.769 229.61,111.031 421.87,307.399 421.87,307.399 -288.48,-141.75 -570.44,-136.11 -757.95,-105.848" /><path
         id="path104"
         style="fill:#e4066e;fill-opacity:1;fill-rule:nonzero;stroke:none"
         d="m 2317.57,1190.54 c -18.3,24.02 -36.74,47.98 -55.42,71.78 -0.96,1.23 -1.94,2.45 -2.9,3.68 -19.69,25.04 -39.59,49.92 -59.79,74.57 -0.25,0.3 -0.5,0.61 -0.75,0.92 -20.78,25.32 -41.84,50.4 -63.27,75.15 -1.36,1.57 -2.7,3.16 -4.08,4.73 -13.1,15.08 -26.42,29.97 -39.8,44.79 -4.64,5.12 -9.29,10.24 -13.97,15.34 -11.1,12.11 -22.31,24.11 -33.62,36 -8.81,9.23 -17.74,18.33 -26.68,27.42 -8.42,8.58 -16.81,17.2 -25.37,25.65 -18.38,18.1 -36.98,35.97 -56,53.38 -8.41,7.69 -16.94,15.27 -25.55,22.72 -0.05,-0.08 -0.09,-0.17 -0.13,-0.26 18.11,-52.06 38.78,-104.76 49.13,-159.05 2.69,-14.12 4.92,-27.86 6.73,-41.28 25.23,-187.89 -34.97,-310.57 -130.59,-471.951 -6.86,-11.57 -13.89,-23.328 -21.09,-35.328 -21.86,-36.461 -35.87,-70.981 -43.99,-103.391 -2.7,-10.801 -4.74,-21.371 -6.21,-31.699 187.51,-30.262 469.47,-35.902 757.95,105.848 0,0 -56.57,83.152 -141.7,197.461 -19.03,25.55 -38.21,51.08 -57.56,76.54 -1.76,2.33 -3.56,4.65 -5.34,6.98" /><path
         id="path106"
         style="fill:#231f20;fill-opacity:1;fill-rule:nonzero;stroke:none"
         d="m 1871.33,534.18 c 0,0 -14.49,11.48 -32.88,32.64 -4.31,4.961 -8.75,10.262 -13.37,16.301 -3.47,4.527 -6.99,9.359 -10.51,14.488 -2.34,3.411 -4.67,6.961 -6.98,10.621 -6.95,11.008 -13.71,23.161 -19.82,36.391 -6.11,13.219 -11.58,27.52 -15.94,42.84 -2.91,10.211 -5.32,20.871 -7.12,31.969 -2.69,16.64 -3.97,34.261 -3.38,52.789 0.31,10.203 1.36,20.75 2.89,31.492 1.47,10.328 3.51,20.898 6.21,31.699 8.12,32.41 22.13,66.942 43.99,103.391 0.07,0.097 0.12,0.199 0.18,0.301 7.14,11.898 14.11,23.558 20.91,35.027 95.62,161.381 155.82,284.061 130.59,471.951 -1.81,13.42 -4.04,27.16 -6.73,41.28 -1.43,-9.76 -2.9,-18.15 -4.4,-25.2 -0.14,-0.7 -0.29,-1.33 -0.44,-2 -0.95,-4.29 -1.93,-8.16 -2.91,-11.08 -41.54,-122.93 -110.6,-218.49 -204.68,-320.6 -12.75,-13.84 -26.11,-27.87 -39.77,-42.04 -23,-23.84 -47.12,-48.19 -72.64,-73.59 -10.18,-10.12 -20.56,-20.401 -31.13,-30.87 -9.7,-9.601 -22.45,-22.691 -36.85,-37.82 v 0 c -8.89,-24.89 -19,-52.961 -27.54,-82.48 -3.85,1.461 -7.52,2.769 -11.44,4.289 -182.77,70.691 -305.13,165.141 -305.13,165.141 0,0 94.15,-122.59 252.77,-237.669 15.36,-11.14 30.49,-20.781 45.32,-29.339 -6.54,-103.571 39.15,-203.012 245.4,-232.661 34.87,-5.011 70.57,-4.781 106.54,-0.73 -0.36,1.07 -0.65,1.937 -0.84,2.539 -0.2,0.602 -0.3,0.93 -0.3,0.93" /></g></g></svg>