<svg width="24" height="24" viewBox="0 0 24 24" fill="none" xmlns="http://www.w3.org/2000/svg">
<path d="M21.2812 13.5469C21.8906 13.7344 22.2188 14.3438 22.0312 14.9531C20.7188 19.4062 16.5938 22.5 11.9531 22.5C8.25 22.5 4.82812 20.4844 2.95312 17.3438V22.125C2.95312 22.7812 2.48438 23.25 1.82812 23.25C1.21875 23.25 0.703125 22.7812 0.703125 22.125V14.625C0.703125 14.0156 1.21875 13.5 1.82812 13.5H9.32812C9.98438 13.5 10.4531 14.0156 10.4531 14.625C10.4531 15.2812 9.9375 15.75 9.32812 15.75H4.59375C6 18.4688 8.8125 20.25 11.9531 20.25C15.6094 20.25 18.8906 17.8125 19.875 14.2969C20.0625 13.6875 20.6719 13.3594 21.2812 13.5469ZM22.125 0.75C22.7344 0.75 23.25 1.26562 23.25 1.875V9.375C23.25 10.0312 22.7344 10.5 22.125 10.5H14.625C13.9688 10.5 13.5 10.0312 13.5 9.375C13.5 8.76562 13.9688 8.25 14.625 8.25H19.3125C17.9062 5.57812 15.0938 3.75 12 3.75C8.34375 3.75 5.0625 6.23438 4.03125 9.70312C3.89062 10.3125 3.28125 10.6406 2.67188 10.4531C2.0625 10.3125 1.73438 9.65625 1.875 9.09375C3.1875 4.64062 7.35938 1.5 12 1.5C15.7031 1.5 19.125 3.5625 21 6.70312V1.875C21 1.26562 21.4688 0.75 22.125 0.75Z" fill="#393838"/>
</svg>
